# xmcd CD database file
#
# Track frame offsets:
#	150
#	9650
#	28507
#	47020
#	64022
#	80137
#	99865
#	119400
#	133582
#	150177
#	169980
#	182830
#	202940
#	215960
#
# Disc length: 3169 seconds
#
# Revision: 2
# Processed by: cddbd v1.5.1PL0 Copyright (c) Steve Scherf et al.
# Submitted via: CDex 1.51
#
DISCID=bb0c5f0e
DTITLE=John Hore Grenell - Welcome to our world
DYEAR=1990
DGENRE=Country
TTITLE0=Welcome to our world
TTITLE1=Past like a mask
TTITLE2=Down on the farm
TTITLE3=Dance with you
TTITLE4=Lovers and losers
TTITLE5=Night rider's lament (Old cowboy waltz)
TTITLE6=Love is the master
TTITLE7=Cowboy John's last ride (Broc Bill's lament)
TTITLE8=Ghost town
TTITLE9=Carolina in the pines
TTITLE10=All God's critters
TTITLE11=Dance all night (Down Otago way)
TTITLE12=Other side of the hill
TTITLE13=One world (Cowboy reggae)
EXTD=YEAR: 1990
EXTT0=
EXTT1=
EXTT2=
EXTT3=
EXTT4=
EXTT5=
EXTT6=
EXTT7=
EXTT8=
EXTT9=
EXTT10=
EXTT11=
EXTT12=
EXTT13=
PLAYORDER=
